<?xml version="1.0" encoding="UTF-8"?>
<svg id="Layer_1" data-name="Layer 1" xmlns="http://www.w3.org/2000/svg" viewBox="0 0 213.44 144">
  <defs>
    <style>
      .cls-1 {
        stroke: #231f20;
        stroke-miterlimit: 10;
        stroke-width: .37px;
      }

      .cls-1, .cls-2, .cls-3 {
        fill: #231f20;
      }

      .cls-2 {
        font-family: TitanOne, 'Titan One';
        font-size: 39.83px;
        letter-spacing: .06em;
      }
    </style>
  </defs>
  <text class="cls-2" transform="translate(46.87 84.62)"><tspan x="0" y="0">RBITZ</tspan></text>
  <text class="cls-2" transform="translate(0 83.8)"><tspan x="0" y="0">O</tspan></text>
  <path class="cls-1" d="M176.63,72.82c.08,.22,.13,.44,.13,.67,0,5.92-28.5,10.73-63.66,10.73s-63.66-4.8-63.66-10.73c0-.17,.03-.34,.08-.51-21.51,2.3-35.17,5.72-35.17,9.55,0,6.91,44.53,12.51,99.45,12.51s99.45-5.6,99.45-12.51c0-3.91-14.27-7.41-36.62-9.7Z"/>
  <path class="cls-3" d="M112.01,0C72.24,0,40.01,32.24,40.01,72s32.24,72,72,72,72-32.24,72-72S151.77,0,112.01,0Zm0,134.66c-35.08,0-63.51-28.05-63.51-62.66S76.93,9.34,112.01,9.34s63.51,28.05,63.51,62.66-28.44,62.66-63.51,62.66Z"/>
</svg>