<?xml version="1.0" encoding="UTF-8"?>
<svg id="Layer_1" data-name="Layer 1" xmlns="http://www.w3.org/2000/svg" viewBox="0 0 53.36 36">
  <defs>
    <style>
      .cls-1 {
        font-family: TitanOne, 'Titan One';
        font-size: 9.96px;
        letter-spacing: .06em;
      }

      .cls-1, .cls-2, .cls-3 {
        fill: #231f20;
      }

      .cls-2 {
        stroke: #231f20;
        stroke-miterlimit: 10;
        stroke-width: .09px;
      }
    </style>
  </defs>
  <text class="cls-1" transform="translate(11.72 21.16)"><tspan x="0" y="0">RBITZ</tspan></text>
  <text class="cls-1" transform="translate(0 20.95)"><tspan x="0" y="0">O</tspan></text>
  <path class="cls-2" d="M44.16,18.2c.02,.06,.03,.11,.03,.17,0,1.48-7.13,2.68-15.92,2.68s-15.92-1.2-15.92-2.68c0-.04,0-.09,.02-.13-5.38,.57-8.79,1.43-8.79,2.39,0,1.73,11.13,3.13,24.86,3.13s24.86-1.4,24.86-3.13c0-.98-3.57-1.85-9.16-2.42Z"/>
  <path class="cls-3" d="M28,0C18.06,0,10,8.06,10,18s8.06,18,18,18,18-8.06,18-18S37.94,0,28,0Zm0,33.66c-8.77,0-15.88-7.01-15.88-15.66S19.23,2.34,28,2.34s15.88,7.01,15.88,15.66-7.11,15.66-15.88,15.66Z"/>
</svg>