<?xml version="1.0" encoding="UTF-8"?>
<svg xmlns="http://www.w3.org/2000/svg" viewBox="0 0 325.05 1135.71">
  <defs>
    <style>
      .cls-1 {
        font-size: 60px;
        letter-spacing: .06em;
      }

      .cls-1, .cls-2, .cls-3, .cls-4, .cls-5, .cls-6, .cls-7, .cls-8, .cls-9 {
        fill: #231f20;
      }

      .cls-1, .cls-3 {
        font-family: TitanOne, 'Titan One';
      }

      .cls-2, .cls-4 {
        stroke-width: .51px;
      }

      .cls-2, .cls-4, .cls-6, .cls-7, .cls-8 {
        stroke: #231f20;
        stroke-miterlimit: 10;
      }

      .cls-3 {
        font-size: 17.98px;
        letter-spacing: .06em;
      }

      .cls-4, .cls-5 {
        opacity: .51;
      }

      .cls-6 {
        stroke-width: .17px;
      }

      .cls-7 {
        stroke-width: .53px;
      }

      .cls-8 {
        stroke-width: .56px;
      }
    </style>
  </defs>
  <g id="Original_Inception" data-name="Original Inception">
    <text class="cls-1" transform="translate(67.07 52.54)"><tspan x="0" y="0">RBITZ</tspan></text>
    <text class="cls-1" transform="translate(.43 51.3)"><tspan x="0" y="0">O</tspan></text>
    <path class="cls-4" d="M249.65,29.49c.11,.3,.19,.59,.19,.9,0,7.96-39.59,14.42-88.42,14.42s-88.42-6.46-88.42-14.42c0-.23,.04-.46,.11-.69-29.87,3.09-48.84,7.69-48.84,12.83,0,9.29,61.84,16.82,138.13,16.82s138.13-7.53,138.13-16.82c0-5.26-19.83-9.95-50.87-13.04Z"/>
  </g>
  <g id="Original_Inception-_Solidified" data-name="Original Inception- Solidified">
    <text class="cls-1" transform="translate(67.07 143.51)"><tspan x="0" y="0">RBITZ</tspan></text>
    <text class="cls-1" transform="translate(.43 142.28)"><tspan x="0" y="0">O</tspan></text>
    <path class="cls-2" d="M249.65,120.47c.11,.3,.19,.59,.19,.9,0,7.96-39.59,14.42-88.42,14.42s-88.42-6.46-88.42-14.42c0-.23,.04-.46,.11-.69-29.87,3.09-48.84,7.69-48.84,12.83,0,9.29,61.84,16.82,138.13,16.82s138.13-7.53,138.13-16.82c0-5.26-19.83-9.95-50.87-13.04Z"/>
  </g>
  <g id="orbitz_logo">
    <text class="cls-3" transform="translate(146.92 913.67)"><tspan x="0" y="0">RBITZ</tspan></text>
    <text class="cls-3" transform="translate(125.76 913.3)"><tspan x="0" y="0">O</tspan></text>
    <path class="cls-6" d="M205.49,908.35c.04,.1,.06,.2,.06,.3,0,2.67-12.87,4.84-28.74,4.84s-28.74-2.17-28.74-4.84c0-.08,.01-.15,.03-.23-9.71,1.04-15.87,2.58-15.87,4.31,0,3.12,20.1,5.65,44.89,5.65s44.89-2.53,44.89-5.65c0-1.77-6.44-3.34-16.53-4.38Z"/>
    <path class="cls-9" d="M176.32,875.48c-17.95,0-32.5,14.55-32.5,32.5s14.55,32.5,32.5,32.5,32.5-14.55,32.5-32.5-14.55-32.5-32.5-32.5Zm0,60.78c-15.83,0-28.67-12.66-28.67-28.28s12.84-28.28,28.67-28.28,28.67,12.66,28.67,28.28-12.84,28.28-28.67,28.28Z"/>
  </g>
  <g id="Experiment_After_Punch" data-name="Experiment After Punch">
    <text class="cls-1" transform="translate(70.62 676.58)"><tspan x="0" y="0">RBITZ</tspan></text>
    <text class="cls-1" transform="translate(0 675.34)"><tspan x="0" y="0">O</tspan></text>
    <path class="cls-7" d="M266.1,662.08c.12,.3,.2,.6,.2,.91,0,8.05-42.94,14.58-95.91,14.58s-95.91-6.53-95.91-14.58c0-.23,.04-.47,.12-.7-32.41,3.12-52.98,7.77-52.98,12.97,0,9.39,67.08,17,149.83,17s149.83-7.61,149.83-17c0-5.32-21.51-10.06-55.18-13.18Z"/>
    <path class="cls-9" d="M168.75,549.09c-59.91,0-108.47,48.56-108.47,108.47s48.56,108.47,108.47,108.47,108.47-48.56,108.47-108.47-48.56-108.47-108.47-108.47Zm0,202.87c-52.85,0-95.69-42.26-95.69-94.4s42.84-94.4,95.69-94.4,95.69,42.26,95.69,94.4-42.84,94.4-95.69,94.4Z"/>
  </g>
  <g id="Experiment_Before_Punch" data-name="Experiment Before Punch">
    <text class="cls-1" transform="translate(74.12 435.07)"><tspan x="0" y="0">RBITZ</tspan></text>
    <text class="cls-1" transform="translate(3.51 433.83)"><tspan x="0" y="0">O</tspan></text>
    <path class="cls-7" d="M269.6,420.57c.12,.3,.2,.6,.2,.91,0,8.05-42.94,14.58-95.91,14.58s-95.91-6.53-95.91-14.58c0-.23,.04-.47,.12-.7-32.41,3.12-52.98,7.77-52.98,12.97,0,9.39,67.08,17,149.83,17s149.83-7.61,149.83-17c0-5.32-21.51-10.06-55.18-13.18Z"/>
    <circle class="cls-5" cx="172.23" cy="414.95" r="108.47"/>
    <ellipse class="cls-5" cx="172.23" cy="414.95" rx="98.13" ry="96.81"/>
  </g>
  <g id="Main-_Ring_Up" data-name="Main- Ring Up">
    <text class="cls-1" transform="translate(85.15 1113.06)"><tspan x="0" y="0">RBITZ</tspan></text>
    <text class="cls-1" transform="translate(16.28 1111.83)"><tspan x="0" y="0">O</tspan></text>
    <path class="cls-8" d="M269.25,1093.25c.11,.35,.19,.71,.19,1.06,0,9.47-40.44,17.14-90.33,17.14s-90.33-7.67-90.33-17.14c0-.27,.04-.55,.11-.82-30.52,3.67-49.89,9.14-49.89,15.25,0,11.04,63.18,19.99,141.11,19.99s141.11-8.95,141.11-19.99c0-6.25-20.25-11.83-51.97-15.5Z"/>
  </g>
  <g id="Main">
    <text class="cls-1" transform="translate(72.16 235.72)"><tspan x="0" y="0">RBITZ</tspan></text>
    <text class="cls-1" transform="translate(1.54 234.49)"><tspan x="0" y="0">O</tspan></text>
    <path class="cls-7" d="M267.64,221.22c.12,.3,.2,.6,.2,.91,0,8.05-42.94,14.58-95.91,14.58s-95.91-6.53-95.91-14.58c0-.23,.04-.47,.12-.7-32.41,3.12-52.98,7.77-52.98,12.97,0,9.39,67.08,17,149.83,17s149.83-7.61,149.83-17c0-5.32-21.51-10.06-55.18-13.18Z"/>
  </g>
</svg>