<?xml version="1.0" encoding="UTF-8"?>
<svg id="Layer_2" data-name="Layer 2" xmlns="http://www.w3.org/2000/svg" viewBox="0 0 48 48">
  <defs>
    <style>
      .cls-1 {
        fill: #797979;
      }

      .cls-2 {
        fill: #fff;
      }
    </style>
  </defs>
  <g id="Icons">
    <g>
      <path class="cls-1" d="M48,24c0,13.25-10.75,24-24,24S0,37.25,0,24,10.75,0,24,0s24,10.74,24,24Z"/>
      <g>
        <path class="cls-2" d="M32.02,29.19c-.24,0-.41,.07-.52,.21-.11,.14-.16,.37-.16,.7v.78h1.34v-.78c0-.33-.05-.56-.16-.7-.1-.14-.27-.21-.51-.21Z"/>
        <g>
          <path class="cls-2" d="M26.79,29.16c-.11,0-.22,.02-.32,.07-.11,.05-.21,.13-.31,.24v4.84c.12,.12,.24,.22,.36,.28,.12,.05,.24,.08,.37,.08,.19,0,.32-.05,.41-.17,.09-.11,.13-.29,.13-.54v-4.01c0-.26-.05-.46-.16-.6-.11-.13-.27-.2-.47-.2Z"/>
          <g>
            <path class="cls-2" d="M33.52,23H14.48c-3.03,0-5.48,2.8-5.48,5.89v4.5c0,3.09,2.45,5.6,5.48,5.6h19.04c3.03,0,5.48-2.51,5.48-5.6v-4.5c0-3.09-2.45-5.89-5.48-5.89Zm-15.04,3.8h-1.77v8.99h-1.71v-8.99h-1.77v-1.53h5.25v1.53Zm5,8.99h-1.52v-.85c-.28,.31-.57,.56-.88,.72-.3,.17-.6,.25-.88,.25-.35,0-.61-.11-.79-.35-.18-.23-.27-.57-.27-1.04v-6.49h1.52v5.96c0,.18,.03,.32,.09,.4,.07,.08,.17,.12,.31,.12,.11,0,.25-.05,.42-.16,.17-.11,.33-.25,.47-.42v-5.9h1.52v7.76Zm5.51-1.6c0,.55-.12,.97-.36,1.26-.24,.29-.58,.44-1.03,.44-.3,0-.56-.05-.8-.17-.23-.11-.45-.29-.65-.53v.59h-1.53v-10.52h1.53v3.39c.21-.24,.42-.42,.65-.54,.23-.13,.46-.19,.7-.19,.48,0,.85,.16,1.1,.5,.25,.33,.38,.81,.38,1.45v4.31Zm5.26-2.09h-2.9v1.46c0,.41,.05,.69,.15,.85,.1,.16,.27,.24,.52,.24s.43-.07,.53-.2c.1-.14,.15-.43,.15-.89v-.35h1.56v.4c0,.8-.19,1.39-.57,1.8-.38,.4-.95,.6-1.7,.6-.68,0-1.22-.21-1.61-.64-.39-.42-.59-1.01-.59-1.76v-3.49c0-.67,.21-1.22,.65-1.65,.43-.42,.98-.64,1.66-.64s1.23,.2,1.6,.59c.37,.39,.56,.96,.56,1.69v1.98Z"/>
            <polygon class="cls-2" points="14.68 9 16.97 16 16.97 20.59 18.9 20.59 18.9 15.78 21.14 9 19.18 9 17.99 13.63 17.87 13.63 16.62 9 14.68 9"/>
            <path class="cls-2" d="M21.96,12.41c-.46,.39-.69,.92-.69,1.58v4.43c0,.73,.22,1.3,.67,1.73,.45,.43,1.05,.65,1.8,.65s1.38-.21,1.83-.62c.44-.42,.66-.99,.66-1.72v-4.42c0-.65-.23-1.19-.68-1.6-.45-.41-1.03-.62-1.74-.62-.78,0-1.39,.2-1.86,.59Zm2.53,1.52v4.66c0,.23-.07,.41-.21,.54-.14,.13-.32,.2-.55,.2s-.4-.06-.52-.19c-.12-.13-.18-.31-.18-.54v-4.66c0-.19,.07-.34,.19-.45,.13-.11,.3-.17,.51-.17,.23,0,.41,.06,.55,.17,.14,.12,.21,.27,.21,.45Z"/>
            <path class="cls-2" d="M32.5,20.59V12.04h-1.71v6.49c-.16,.19-.33,.34-.53,.46-.2,.12-.35,.18-.48,.18-.16,0-.28-.04-.35-.14-.07-.09-.11-.24-.11-.44v-6.56h-1.71v7.15c0,.51,.1,.89,.3,1.14,.2,.26,.5,.39,.89,.39,.32,0,.65-.09,.99-.27,.34-.18,.67-.45,.98-.8v.95h1.71Z"/>
          </g>
        </g>
      </g>
      <path class="cls-1" d="M48,24c0,13.25-10.75,24-24,24S0,37.25,0,24,10.75,0,24,0s24,10.74,24,24Z"/>
      <g>
        <path class="cls-2" d="M32.02,29.19c-.24,0-.41,.07-.52,.21-.11,.14-.16,.37-.16,.7v.78h1.34v-.78c0-.33-.05-.56-.16-.7-.1-.14-.27-.21-.51-.21Z"/>
        <g>
          <path class="cls-2" d="M26.79,29.16c-.11,0-.22,.02-.32,.07-.11,.05-.21,.13-.31,.24v4.84c.12,.12,.24,.22,.36,.28,.12,.05,.24,.08,.37,.08,.19,0,.32-.05,.41-.17,.09-.11,.13-.29,.13-.54v-4.01c0-.26-.05-.46-.16-.6-.11-.13-.27-.2-.47-.2Z"/>
          <g>
            <path class="cls-2" d="M33.52,23H14.48c-3.03,0-5.48,2.8-5.48,5.89v4.5c0,3.09,2.45,5.6,5.48,5.6h19.04c3.03,0,5.48-2.51,5.48-5.6v-4.5c0-3.09-2.45-5.89-5.48-5.89Zm-15.04,3.8h-1.77v8.99h-1.71v-8.99h-1.77v-1.53h5.25v1.53Zm5,8.99h-1.52v-.85c-.28,.31-.57,.56-.88,.72-.3,.17-.6,.25-.88,.25-.35,0-.61-.11-.79-.35-.18-.23-.27-.57-.27-1.04v-6.49h1.52v5.96c0,.18,.03,.32,.09,.4,.07,.08,.17,.12,.31,.12,.11,0,.25-.05,.42-.16,.17-.11,.33-.25,.47-.42v-5.9h1.52v7.76Zm5.51-1.6c0,.55-.12,.97-.36,1.26-.24,.29-.58,.44-1.03,.44-.3,0-.56-.05-.8-.17-.23-.11-.45-.29-.65-.53v.59h-1.53v-10.52h1.53v3.39c.21-.24,.42-.42,.65-.54,.23-.13,.46-.19,.7-.19,.48,0,.85,.16,1.1,.5,.25,.33,.38,.81,.38,1.45v4.31Zm5.26-2.09h-2.9v1.46c0,.41,.05,.69,.15,.85,.1,.16,.27,.24,.52,.24s.43-.07,.53-.2c.1-.14,.15-.43,.15-.89v-.35h1.56v.4c0,.8-.19,1.39-.57,1.8-.38,.4-.95,.6-1.7,.6-.68,0-1.22-.21-1.61-.64-.39-.42-.59-1.01-.59-1.76v-3.49c0-.67,.21-1.22,.65-1.65,.43-.42,.98-.64,1.66-.64s1.23,.2,1.6,.59c.37,.39,.56,.96,.56,1.69v1.98Z"/>
            <polygon class="cls-2" points="14.68 9 16.97 16 16.97 20.59 18.9 20.59 18.9 15.78 21.14 9 19.18 9 17.99 13.63 17.87 13.63 16.62 9 14.68 9"/>
            <path class="cls-2" d="M21.96,12.41c-.46,.39-.69,.92-.69,1.58v4.43c0,.73,.22,1.3,.67,1.73,.45,.43,1.05,.65,1.8,.65s1.38-.21,1.83-.62c.44-.42,.66-.99,.66-1.72v-4.42c0-.65-.23-1.19-.68-1.6-.45-.41-1.03-.62-1.74-.62-.78,0-1.39,.2-1.86,.59Zm2.53,1.52v4.66c0,.23-.07,.41-.21,.54-.14,.13-.32,.2-.55,.2s-.4-.06-.52-.19c-.12-.13-.18-.31-.18-.54v-4.66c0-.19,.07-.34,.19-.45,.13-.11,.3-.17,.51-.17,.23,0,.41,.06,.55,.17,.14,.12,.21,.27,.21,.45Z"/>
            <path class="cls-2" d="M32.5,20.59V12.04h-1.71v6.49c-.16,.19-.33,.34-.53,.46-.2,.12-.35,.18-.48,.18-.16,0-.28-.04-.35-.14-.07-.09-.11-.24-.11-.44v-6.56h-1.71v7.15c0,.51,.1,.89,.3,1.14,.2,.26,.5,.39,.89,.39,.32,0,.65-.09,.99-.27,.34-.18,.67-.45,.98-.8v.95h1.71Z"/>
          </g>
        </g>
      </g>
      <path class="cls-1" d="M48,24c0,13.25-10.75,24-24,24S0,37.25,0,24,10.75,0,24,0s24,10.74,24,24Z"/>
      <g>
        <path class="cls-2" d="M32.02,29.19c-.24,0-.41,.07-.52,.21-.11,.14-.16,.37-.16,.7v.78h1.34v-.78c0-.33-.05-.56-.16-.7-.1-.14-.27-.21-.51-.21Z"/>
        <g>
          <path class="cls-2" d="M26.79,29.16c-.11,0-.22,.02-.32,.07-.11,.05-.21,.13-.31,.24v4.84c.12,.12,.24,.22,.36,.28,.12,.05,.24,.08,.37,.08,.19,0,.32-.05,.41-.17,.09-.11,.13-.29,.13-.54v-4.01c0-.26-.05-.46-.16-.6-.11-.13-.27-.2-.47-.2Z"/>
          <g>
            <path class="cls-2" d="M33.52,23H14.48c-3.03,0-5.48,2.8-5.48,5.89v4.5c0,3.09,2.45,5.6,5.48,5.6h19.04c3.03,0,5.48-2.51,5.48-5.6v-4.5c0-3.09-2.45-5.89-5.48-5.89Zm-15.04,3.8h-1.77v8.99h-1.71v-8.99h-1.77v-1.53h5.25v1.53Zm5,8.99h-1.52v-.85c-.28,.31-.57,.56-.88,.72-.3,.17-.6,.25-.88,.25-.35,0-.61-.11-.79-.35-.18-.23-.27-.57-.27-1.04v-6.49h1.52v5.96c0,.18,.03,.32,.09,.4,.07,.08,.17,.12,.31,.12,.11,0,.25-.05,.42-.16,.17-.11,.33-.25,.47-.42v-5.9h1.52v7.76Zm5.51-1.6c0,.55-.12,.97-.36,1.26-.24,.29-.58,.44-1.03,.44-.3,0-.56-.05-.8-.17-.23-.11-.45-.29-.65-.53v.59h-1.53v-10.52h1.53v3.39c.21-.24,.42-.42,.65-.54,.23-.13,.46-.19,.7-.19,.48,0,.85,.16,1.1,.5,.25,.33,.38,.81,.38,1.45v4.31Zm5.26-2.09h-2.9v1.46c0,.41,.05,.69,.15,.85,.1,.16,.27,.24,.52,.24s.43-.07,.53-.2c.1-.14,.15-.43,.15-.89v-.35h1.56v.4c0,.8-.19,1.39-.57,1.8-.38,.4-.95,.6-1.7,.6-.68,0-1.22-.21-1.61-.64-.39-.42-.59-1.01-.59-1.76v-3.49c0-.67,.21-1.22,.65-1.65,.43-.42,.98-.64,1.66-.64s1.23,.2,1.6,.59c.37,.39,.56,.96,.56,1.69v1.98Z"/>
            <polygon class="cls-2" points="14.68 9 16.97 16 16.97 20.59 18.9 20.59 18.9 15.78 21.14 9 19.18 9 17.99 13.63 17.87 13.63 16.62 9 14.68 9"/>
            <path class="cls-2" d="M21.96,12.41c-.46,.39-.69,.92-.69,1.58v4.43c0,.73,.22,1.3,.67,1.73,.45,.43,1.05,.65,1.8,.65s1.38-.21,1.83-.62c.44-.42,.66-.99,.66-1.72v-4.42c0-.65-.23-1.19-.68-1.6-.45-.41-1.03-.62-1.74-.62-.78,0-1.39,.2-1.86,.59Zm2.53,1.52v4.66c0,.23-.07,.41-.21,.54-.14,.13-.32,.2-.55,.2s-.4-.06-.52-.19c-.12-.13-.18-.31-.18-.54v-4.66c0-.19,.07-.34,.19-.45,.13-.11,.3-.17,.51-.17,.23,0,.41,.06,.55,.17,.14,.12,.21,.27,.21,.45Z"/>
            <path class="cls-2" d="M32.5,20.59V12.04h-1.71v6.49c-.16,.19-.33,.34-.53,.46-.2,.12-.35,.18-.48,.18-.16,0-.28-.04-.35-.14-.07-.09-.11-.24-.11-.44v-6.56h-1.71v7.15c0,.51,.1,.89,.3,1.14,.2,.26,.5,.39,.89,.39,.32,0,.65-.09,.99-.27,.34-.18,.67-.45,.98-.8v.95h1.71Z"/>
          </g>
        </g>
      </g>
    </g>
  </g>
</svg>