<?xml version="1.0" encoding="UTF-8"?>
<svg id="Layer_2" data-name="Layer 2" xmlns="http://www.w3.org/2000/svg" viewBox="0 0 264.6 303.15">
  <defs>
    <style>
      .cls-1 {
        fill: #ec82ee;
      }
    </style>
  </defs>
  <g id="leaves">
    <path class="cls-1" d="M254.08,79.32c-19.35-4.75-58.21,7.06-77.62,18.04-16.62,9.4-53.49,38.1-72.73,53.35-4.36,2.85-8.42,6.11-12.15,9.71-.04,.04-.07,.06-.07,.06h0c-2.09,2.02-4.08,4.14-5.95,6.37-12.1,14.42-19.39,33.02-19.39,53.32,0,45.83,37.15,82.98,82.98,82.98,38.11,0,70.2-25.71,79.93-60.72h.02s.07-.26,.21-.79c.17-.64,.33-1.28,.48-1.93,3.01-12.16,15.28-64.56,25.06-147.71,1.62-2.18,9.1-2.21,9.7-4.85,.73-3.19-7.29-7.05-10.47-7.83ZM124.16,270.89l-11.46-7.36,48.3-75.16,53.76-83.66,11.46,7.36-59.79,93.04h0l-42.27,65.78Z"/>
    <path class="cls-1" d="M119.41,59.1c-1.25-1.49-2.58-2.9-3.97-4.25h0s-.02-.02-.05-.04c-2.49-2.4-5.2-4.57-8.11-6.48-12.83-10.17-37.42-29.31-48.51-35.58C45.84,5.43,19.92-2.45,7.01,.72,4.9,1.24-.45,3.82,.03,5.94c.4,1.76,5.39,1.78,6.47,3.24,6.52,55.44,14.7,90.38,16.71,98.5,.11,.44,.21,.87,.33,1.3,.09,.34,.14,.53,.14,.53h.01c6.49,23.35,27.89,40.49,53.31,40.49,30.56,0,55.34-24.78,55.34-55.34,0-13.54-4.86-25.94-12.93-35.56Zm-25.74,69.39l-28.19-43.87h0L25.6,22.56l7.64-4.91,40.04,62.31h0l28.02,43.61-7.64,4.91Z"/>
  </g>
</svg>