<?xml version="1.0" encoding="UTF-8"?>
<svg id="Layer_2" data-name="Layer 2" xmlns="http://www.w3.org/2000/svg" viewBox="0 0 554.38 527.25">
  <defs>
    <style>
      .cls-1 {
        fill: #ec82ee;
      }
    </style>
  </defs>
  <g id="recycle">
    <path class="cls-1" d="M205.79,309.1l-50.55-31.15-45.96,80.17H253.79v134.81h-125.62l-20.43-8.68c-5.24-2.23-18.89-16.85-18.89-16.85,0,0-78.51-151.21-82.72-159.32s1.53-28.09,1.53-28.09l37.79-61.79L0,190.63H132.26l73.53,118.47Zm210.22-133.13l66.13-114.54-46.6,25.57-34.62-63.62s-14.43-14.96-23.56-15.37S198.03,0,198.03,0c0,0-19.49,4.51-24.04,7.94l-17.73,13.35-62.81,108.79,116.75,67.4,72.26-125.15,46.45,79.89-52.25,28.21,139.36-4.45Zm-128.22,236.74l66.13,114.54,1.16-53.15,72.4,1.83s20.17-5.02,25.09-12.72c4.92-7.7,96.61-151.3,96.61-151.3,0,0,5.84-19.13,5.15-24.79s-2.69-22.03-2.69-22.03l-62.81-108.79-116.75,67.4,72.26,125.15-92.41,.28,1.7-59.35-65.83,122.91Z"/>
  </g>
</svg>